<svg width="194" height="100" viewBox="0 0 194 100" fill="none" xmlns="http://www.w3.org/2000/svg">
<path d="M36.2635 2.24013V43.6235H26.1829V26.5868H10.502V43.6235H0.421478V2.24013H10.502V18.4516H26.1829V2.24013H36.2635Z" fill="white"/>
<path d="M74.5487 26.6457C74.5487 27.5889 74.4898 28.5714 74.3719 29.5932H51.558C51.7152 31.6369 52.3636 33.2089 53.5033 34.3093C54.6824 35.3704 56.1168 35.901 57.8067 35.901C60.322 35.901 62.0708 34.8399 63.0534 32.7176H73.7824C73.2322 34.8792 72.23 36.8245 70.7759 38.5537C69.3611 40.283 67.5729 41.6388 65.4114 42.6213C63.2499 43.6039 60.8329 44.0951 58.1604 44.0951C54.9378 44.0951 52.0689 43.4074 49.5536 42.0318C47.0384 40.6563 45.0734 38.6913 43.6586 36.1368C42.2438 33.5822 41.5364 30.5954 41.5364 27.1763C41.5364 23.7571 42.2241 20.7703 43.5996 18.2158C45.0145 15.6612 46.9795 13.6962 49.4947 12.3207C52.0099 10.9452 54.8985 10.2574 58.1604 10.2574C61.3438 10.2574 64.1734 10.9255 66.6494 12.2617C69.1253 13.598 71.051 15.504 72.4265 17.98C73.8413 20.4559 74.5487 23.3445 74.5487 26.6457ZM64.2324 23.9929C64.2324 22.2637 63.6429 20.8882 62.4639 19.8664C61.2848 18.8446 59.8111 18.3337 58.0426 18.3337C56.3526 18.3337 54.9182 18.8249 53.7392 19.8074C52.5994 20.7899 51.892 22.1851 51.6169 23.9929H64.2324Z" fill="white"/>
<path d="M77.8624 27.1173C77.8624 23.7375 78.4912 20.7703 79.7488 18.2158C81.0458 15.6612 82.7946 13.6962 84.9955 12.3207C87.1963 10.9452 89.6526 10.2574 92.3643 10.2574C94.683 10.2574 96.707 10.729 98.4362 11.6722C100.205 12.6154 101.561 13.8534 102.504 15.3861V10.729H112.584V43.6235H102.504V38.9664C101.521 40.4991 100.146 41.7371 98.3773 42.6803C96.648 43.6235 94.6241 44.0951 92.3053 44.0951C89.6329 44.0951 87.1963 43.4074 84.9955 42.0318C82.7946 40.617 81.0458 38.6323 79.7488 36.0778C78.4912 33.484 77.8624 30.4972 77.8624 27.1173ZM102.504 27.1763C102.504 24.661 101.796 22.6764 100.382 21.2222C99.0061 19.7681 97.3161 19.0411 95.3118 19.0411C93.3075 19.0411 91.5979 19.7681 90.1831 21.2222C88.8076 22.6371 88.1198 24.6021 88.1198 27.1173C88.1198 29.6325 88.8076 31.6369 90.1831 33.1303C91.5979 34.5844 93.3075 35.3115 95.3118 35.3115C97.3161 35.3115 99.0061 34.5844 100.382 33.1303C101.796 31.6762 102.504 29.6915 102.504 27.1763Z" fill="white"/>
<path d="M129.958 0V43.6235H119.877V0H129.958Z" fill="white"/>
<path d="M155.597 35.0757V43.6235H150.468C146.813 43.6235 143.964 42.7392 141.92 40.9707C139.877 39.1629 138.855 36.235 138.855 32.1871V19.1H134.846V10.729H138.855V2.71173H148.935V10.729H155.538V19.1H148.935V32.305C148.935 33.2875 149.171 33.9949 149.643 34.4272C150.114 34.8595 150.9 35.0757 152.001 35.0757H155.597Z" fill="white"/>
<path d="M181.432 10.3753C185.205 10.3753 188.231 11.6329 190.51 14.1482C192.79 16.6241 193.929 20.0432 193.929 24.4056V43.6235H183.908V25.7614C183.908 23.5606 183.338 21.8511 182.198 20.6327C181.059 19.4144 179.526 18.8053 177.6 18.8053C175.674 18.8053 174.142 19.4144 173.002 20.6327C171.862 21.8511 171.292 23.5606 171.292 25.7614V43.6235H161.212V0H171.292V15.1503C172.314 13.6962 173.709 12.5368 175.478 11.6722C177.246 10.8076 179.231 10.3753 181.432 10.3753Z" fill="white"/>
<path d="M32.0102 58.145V66.2213H21.0454V99.5284H10.9648V66.2213H0V58.145H32.0102Z" fill="#01FF5F"/>
<path d="M68.0774 82.5506C68.0774 83.4938 68.0185 84.4763 67.9006 85.4981H45.0867C45.2439 87.5418 45.8923 89.1138 47.0321 90.2142C48.2111 91.2753 49.6455 91.8059 51.3355 91.8059C53.8507 91.8059 55.5996 90.7447 56.5821 88.6225H67.3111C66.7609 90.784 65.7587 92.7294 64.3046 94.4586C62.8898 96.1879 61.1016 97.5437 58.9401 98.5262C56.7786 99.5087 54.3616 100 51.6892 100C48.4665 100 45.5976 99.3122 43.0824 97.9367C40.5671 96.5612 38.6021 94.5962 37.1873 92.0417C35.7725 89.4871 35.0651 86.5003 35.0651 83.0812C35.0651 79.662 35.7528 76.6752 37.1283 74.1207C38.5432 71.5661 40.5082 69.6011 43.0234 68.2256C45.5386 66.8501 48.4272 66.1623 51.6892 66.1623C54.8725 66.1623 57.7021 66.8304 60.1781 68.1666C62.654 69.5028 64.5797 71.4089 65.9552 73.8848C67.37 76.3608 68.0774 79.2494 68.0774 82.5506ZM57.7611 79.8978C57.7611 78.1686 57.1716 76.7931 55.9926 75.7713C54.8135 74.7495 53.3398 74.2386 51.5713 74.2386C49.8813 74.2386 48.4469 74.7298 47.2679 75.7123C46.1281 76.6948 45.4207 78.09 45.1456 79.8978H57.7611Z" fill="#01FF5F"/>
<path d="M71.3911 83.0812C71.3911 79.662 72.0789 76.6752 73.4544 74.1207C74.8692 71.5661 76.8146 69.6011 79.2905 68.2256C81.8057 66.8501 84.6747 66.1623 87.8973 66.1623C92.0239 66.1623 95.4626 67.2431 98.2137 69.4046C101.004 71.5661 102.831 74.6119 103.696 78.542H92.9671C92.0632 76.0267 90.3143 74.7691 87.7205 74.7691C85.8733 74.7691 84.3996 75.4962 83.2992 76.9503C82.1987 78.3651 81.6485 80.4087 81.6485 83.0812C81.6485 85.7536 82.1987 87.8169 83.2992 89.271C84.3996 90.6858 85.8733 91.3932 87.7205 91.3932C90.3143 91.3932 92.0632 90.1356 92.9671 87.6204H103.696C102.831 91.4718 101.004 94.4979 98.2137 96.6988C95.4233 98.8996 91.9846 100 87.8973 100C84.6747 100 81.8057 99.3122 79.2905 97.9367C76.8146 96.5612 74.8692 94.5962 73.4544 92.0417C72.0789 89.4871 71.3911 86.5003 71.3911 83.0812Z" fill="#01FF5F"/>
<path d="M129.308 66.2802C133.081 66.2802 136.107 67.5378 138.387 70.0531C140.666 72.529 141.806 75.9481 141.806 80.3105V99.5284H131.784V81.6663C131.784 79.4655 131.214 77.7559 130.075 76.5376C128.935 75.3193 127.402 74.7102 125.477 74.7102C123.551 74.7102 122.018 75.3193 120.878 76.5376C119.739 77.7559 119.169 79.4655 119.169 81.6663V99.5284H109.088V55.9049H119.169V71.0552C120.191 69.6011 121.586 68.4417 123.354 67.5771C125.123 66.7125 127.108 66.2802 129.308 66.2802Z" fill="#01FF5F"/>
</svg>
