<svg width="342" height="45" viewBox="0 0 342 45" fill="none" xmlns="http://www.w3.org/2000/svg">
<path d="M36.2635 2.24013V43.6235H26.1829V26.5868H10.502V43.6235H0.421478V2.24013H10.502V18.4516H26.1829V2.24013H36.2635Z" fill="white"/>
<path d="M74.5487 26.6457C74.5487 27.5889 74.4898 28.5714 74.3719 29.5932H51.558C51.7152 31.6369 52.3636 33.2089 53.5033 34.3093C54.6824 35.3704 56.1168 35.901 57.8067 35.901C60.322 35.901 62.0708 34.8399 63.0534 32.7176H73.7824C73.2322 34.8792 72.23 36.8245 70.7759 38.5537C69.3611 40.283 67.5729 41.6388 65.4114 42.6213C63.2499 43.6039 60.8329 44.0951 58.1605 44.0951C54.9378 44.0951 52.0689 43.4074 49.5537 42.0318C47.0384 40.6563 45.0734 38.6913 43.6586 36.1368C42.2438 33.5822 41.5364 30.5954 41.5364 27.1763C41.5364 23.7571 42.2241 20.7703 43.5996 18.2158C45.0144 15.6612 46.9795 13.6962 49.4947 12.3207C52.0099 10.9452 54.8985 10.2574 58.1605 10.2574C61.3438 10.2574 64.1734 10.9255 66.6494 12.2617C69.1253 13.598 71.051 15.504 72.4265 17.98C73.8413 20.4559 74.5487 23.3445 74.5487 26.6457ZM64.2324 23.9929C64.2324 22.2637 63.6429 20.8882 62.4639 19.8664C61.2848 18.8446 59.8111 18.3337 58.0426 18.3337C56.3526 18.3337 54.9182 18.8249 53.7392 19.8074C52.5994 20.7899 51.892 22.1851 51.6169 23.9929H64.2324Z" fill="white"/>
<path d="M77.8624 27.1173C77.8624 23.7375 78.4912 20.7703 79.7488 18.2158C81.0458 15.6612 82.7946 13.6962 84.9955 12.3207C87.1963 10.9452 89.6526 10.2574 92.3643 10.2574C94.683 10.2574 96.707 10.729 98.4362 11.6722C100.205 12.6154 101.561 13.8534 102.504 15.3861V10.729H112.584V43.6235H102.504V38.9664C101.521 40.4991 100.146 41.7371 98.3773 42.6803C96.648 43.6235 94.6241 44.0951 92.3053 44.0951C89.6329 44.0951 87.1963 43.4074 84.9955 42.0318C82.7946 40.617 81.0458 38.6323 79.7488 36.0778C78.4912 33.484 77.8624 30.4972 77.8624 27.1173ZM102.504 27.1763C102.504 24.661 101.796 22.6764 100.382 21.2222C99.0061 19.7681 97.3161 19.0411 95.3118 19.0411C93.3075 19.0411 91.5979 19.7681 90.1831 21.2222C88.8076 22.6371 88.1198 24.6021 88.1198 27.1173C88.1198 29.6325 88.8076 31.6369 90.1831 33.1303C91.5979 34.5844 93.3075 35.3115 95.3118 35.3115C97.3161 35.3115 99.0061 34.5844 100.382 33.1303C101.796 31.6762 102.504 29.6915 102.504 27.1763Z" fill="white"/>
<path d="M129.958 0V43.6235H119.877V0H129.958Z" fill="white"/>
<path d="M155.597 35.0757V43.6235H150.468C146.813 43.6235 143.964 42.7392 141.92 40.9707C139.877 39.1629 138.855 36.235 138.855 32.1871V19.1H134.846V10.729H138.855V2.71173H148.935V10.729H155.538V19.1H148.935V32.305C148.935 33.2875 149.171 33.9949 149.643 34.4272C150.114 34.8595 150.9 35.0757 152.001 35.0757H155.597Z" fill="white"/>
<path d="M181.432 10.3753C185.205 10.3753 188.231 11.6329 190.51 14.1482C192.79 16.6241 193.929 20.0432 193.929 24.4056V43.6235H183.908V25.7614C183.908 23.5606 183.338 21.8511 182.198 20.6327C181.059 19.4144 179.526 18.8053 177.6 18.8053C175.674 18.8053 174.142 19.4144 173.002 20.6327C171.862 21.8511 171.292 23.5606 171.292 25.7614V43.6235H161.212V0H171.292V15.1503C172.314 13.6962 173.709 12.5368 175.478 11.6722C177.246 10.8076 179.231 10.3753 181.432 10.3753Z" fill="white"/>
<path d="M232.01 2.24013V10.3164H221.045V43.6235H210.965V10.3164H200V2.24013H232.01Z" fill="#01FF5F"/>
<path d="M268.077 26.6457C268.077 27.5889 268.018 28.5714 267.901 29.5932H245.087C245.244 31.6369 245.892 33.2089 247.032 34.3093C248.211 35.3704 249.646 35.901 251.335 35.901C253.851 35.901 255.6 34.8399 256.582 32.7176H267.311C266.761 34.8792 265.759 36.8245 264.305 38.5537C262.89 40.283 261.102 41.6388 258.94 42.6213C256.779 43.6039 254.362 44.0951 251.689 44.0951C248.467 44.0951 245.598 43.4074 243.082 42.0318C240.567 40.6563 238.602 38.6913 237.187 36.1368C235.772 33.5822 235.065 30.5954 235.065 27.1763C235.065 23.7571 235.753 20.7703 237.128 18.2158C238.543 15.6612 240.508 13.6962 243.023 12.3207C245.539 10.9452 248.427 10.2574 251.689 10.2574C254.872 10.2574 257.702 10.9255 260.178 12.2617C262.654 13.598 264.58 15.504 265.955 17.98C267.37 20.4559 268.077 23.3445 268.077 26.6457ZM257.761 23.9929C257.761 22.2637 257.172 20.8882 255.993 19.8664C254.814 18.8446 253.34 18.3337 251.571 18.3337C249.881 18.3337 248.447 18.8249 247.268 19.8074C246.128 20.7899 245.421 22.1851 245.146 23.9929H257.761Z" fill="#01FF5F"/>
<path d="M271.391 27.1763C271.391 23.7571 272.079 20.7703 273.454 18.2158C274.869 15.6612 276.815 13.6962 279.291 12.3207C281.806 10.9452 284.675 10.2574 287.897 10.2574C292.024 10.2574 295.463 11.3382 298.214 13.4997C301.004 15.6612 302.831 18.707 303.696 22.6371H292.967C292.063 20.1218 290.314 18.8642 287.72 18.8642C285.873 18.8642 284.4 19.5913 283.299 21.0454C282.199 22.4602 281.649 24.5038 281.649 27.1763C281.649 29.8487 282.199 31.912 283.299 33.3661C284.4 34.7809 285.873 35.4883 287.72 35.4883C290.314 35.4883 292.063 34.2307 292.967 31.7155H303.696C302.831 35.5669 301.004 38.593 298.214 40.7939C295.423 42.9947 291.985 44.0951 287.897 44.0951C284.675 44.0951 281.806 43.4074 279.291 42.0318C276.815 40.6563 274.869 38.6913 273.454 36.1368C272.079 33.5822 271.391 30.5954 271.391 27.1763Z" fill="#01FF5F"/>
<path d="M329.308 10.3753C333.081 10.3753 336.107 11.6329 338.387 14.1482C340.666 16.6241 341.806 20.0432 341.806 24.4056V43.6235H331.784V25.7614C331.784 23.5606 331.214 21.8511 330.075 20.6327C328.935 19.4144 327.402 18.8053 325.477 18.8053C323.551 18.8053 322.018 19.4144 320.878 20.6327C319.739 21.8511 319.169 23.5606 319.169 25.7614V43.6235H309.088V0H319.169V15.1503C320.191 13.6962 321.586 12.5368 323.354 11.6722C325.123 10.8076 327.108 10.3753 329.308 10.3753Z" fill="#01FF5F"/>
</svg>
